<svg width="36" height="36" viewBox="0 0 36 36" fill="none" xmlns="http://www.w3.org/2000/svg">
<g clip-path="url(#clip0_1784_11233)">
<path d="M25.0606 3.87813C24.8141 3.60859 24.3473 3.77951 24.0219 4.25285L18.664 12.1024L17.1223 4.266C17.1125 4.22327 17.1026 4.17725 17.0862 4.13781C16.9284 3.69734 16.4879 3.61845 16.1001 3.97017C15.7155 4.31859 15.5413 4.94971 15.7056 5.38032L18.4405 12.5428C18.4437 12.5527 18.4503 12.5626 18.4569 12.5724C18.5029 12.6283 18.5917 12.6152 18.6574 12.5363L24.8207 5.32115C24.8502 5.28499 24.8864 5.24226 24.916 5.19953C25.2381 4.73605 25.3039 4.14438 25.0606 3.87813Z" fill="#003E52"/>
<path d="M15.0449 15.9548L13.9733 16.3789L11.9617 17.1678L8.11578 18.6798C7.28415 19.0052 6.65961 19.8533 6.57085 20.7474L5.9496 27.0027L1.22279 25.7766C0.496348 25.586 0 24.9384 0 24.1528V10.9125C0 8.96982 1.60738 7.52351 3.10957 8.16778L15.5807 13.5553C15.8601 13.6703 16.0442 13.9596 16.0639 14.354C16.0836 15.0115 15.6333 15.7215 15.0449 15.9548Z" fill="#CDDE00"/>
<path d="M12.6782 29.6258C12.5401 29.8822 12.3035 30.0827 12.0438 30.1846L7.4616 31.9136C6.42946 32.3047 5.47621 31.7426 5.57153 30.773L5.94626 27.0027L10.088 28.0776L11.646 28.4786L12.3462 28.6627C12.7669 28.758 12.9083 29.1919 12.6782 29.6258Z" fill="#00ADBB"/>
<path d="M16.5144 15.7478L13.5198 28.643C13.3686 29.2938 12.8098 29.8953 12.1393 30.1517L12.0439 30.1879C12.3036 30.0827 12.537 29.8855 12.6783 29.6291C12.9084 29.1919 12.7671 28.7613 12.3496 28.666L11.6495 28.4819L10.0914 28.0809L5.94971 27.006L6.57096 20.7507C6.65971 19.8599 7.28426 19.0118 8.11589 18.6831L11.9618 17.1711L13.9734 16.3822L15.045 15.9582C15.6301 15.7248 16.0837 15.0148 16.0607 14.3574C16.041 13.9662 15.8569 13.6736 15.5775 13.5586L15.7255 13.621C16.4289 13.9202 16.7412 14.7847 16.5144 15.7478Z" fill="#003E52"/>
<path d="M20.3634 15.6985L21.2016 16.0239L22.7465 16.609L25.5799 17.6872C26.1749 17.914 26.3425 18.6536 26.0171 19.495L23.7195 25.4414L28.4101 23.5546C29.1037 23.2752 29.794 22.6079 30.1293 21.8815L35.6548 9.96911C36.4437 8.26641 35.8093 7.04362 34.3729 7.65173L21.0109 13.3449C20.6822 13.4797 20.3568 13.7854 20.1464 14.1831C19.8013 14.8471 19.8999 15.521 20.3634 15.6985Z" fill="#CDDE00"/>
<path d="M15.9554 29.297C15.9685 29.537 16.1098 29.6948 16.3235 29.7473L20.0083 30.5691C20.8071 30.7466 21.9608 30.0005 22.3224 29.0636L23.7227 25.4413L19.3115 27.2163L17.5726 27.9132L16.7738 28.2353C16.3005 28.4161 15.9356 28.8927 15.9554 29.297Z" fill="#00ADBB"/>
<path d="M19.0024 15.6328L15.5839 28.4458C15.4097 29.0933 15.6825 29.6094 16.2446 29.7343L16.3235 29.7507C16.1131 29.6949 15.9718 29.5371 15.9553 29.3004C15.9356 28.8961 16.3005 28.4195 16.7738 28.2387L17.5726 27.9166L19.3114 27.2197L23.7227 25.4447L26.0203 19.4984C26.3458 18.6569 26.1748 17.9173 25.5832 17.6905L22.7497 16.6123L21.2048 16.0272L20.3666 15.7018C19.9031 15.521 19.8045 14.8472 20.1496 14.1832C20.36 13.7887 20.6854 13.483 21.0141 13.345L20.8366 13.4206C19.9951 13.7756 19.2588 14.6762 19.0024 15.6328Z" fill="#003E52"/>
</g>
<defs>
<clipPath id="clip0_1784_11233">
<rect width="36" height="28.2885" fill="white" transform="translate(0 3.75)"/>
</clipPath>
</defs>
</svg>
