<svg width="156" height="48" viewBox="0 0 156 48" fill="none" xmlns="http://www.w3.org/2000/svg">
<g clip-path="url(#clip0_1786_11446)">
<path d="M56.3722 34.449C56.4056 34.449 56.4056 34.5153 56.4056 34.5484C56.4056 34.8466 56.3389 35.1779 56.2721 35.5755C56.172 35.9731 56.0051 36.3044 55.7047 36.6026C55.371 36.9339 55.0038 37.1327 54.5366 37.199C54.1027 37.2652 53.6354 37.3315 53.2015 37.3315H50.0975C49.0295 37.3315 48.1617 37.2652 47.4274 37.0996C46.6932 36.967 46.0924 36.702 45.5918 36.4038C44.7907 35.8737 44.1566 35.1448 43.7227 34.2502C43.2888 33.3556 43.0552 32.3617 43.0552 31.2352C43.0552 30.1749 43.2888 29.2141 43.7227 28.3195C44.1566 27.425 44.7907 26.7292 45.5918 26.1991H45.6251C46.1258 25.8677 46.7599 25.6358 47.4608 25.5033C48.1617 25.3708 49.0629 25.2714 50.1309 25.2714H56.2721C56.3055 25.2714 56.3389 25.2714 56.3722 25.3045C56.4056 25.3376 56.4056 25.3708 56.4056 25.4039C56.4056 25.7021 56.3389 26.0334 56.2721 26.3979C56.172 26.7623 56.0051 27.0936 55.7047 27.3918C55.371 27.7231 55.0038 27.9219 54.5366 27.9882C54.1027 28.0545 53.6354 28.1207 53.2015 28.1207H50.3979C48.896 28.1207 47.8613 28.3527 47.2939 28.8165C46.9602 29.0816 46.7265 29.446 46.5597 29.8767H55.104C55.1707 29.8767 55.2041 29.8767 55.2041 29.9099C55.2375 29.943 55.2375 29.9761 55.2375 30.0093C55.2375 30.2743 55.1707 30.6057 55.104 31.0032C55.0038 31.3677 54.8369 31.699 54.5366 31.9972C54.2362 32.3285 53.8357 32.5273 53.4018 32.5936C52.9679 32.6598 52.534 32.693 52.1335 32.693H46.5263C46.7265 33.2894 47.0603 33.6869 47.6277 33.952C48.1951 34.2502 49.0963 34.3827 50.3645 34.3827H56.2721C56.3389 34.3827 56.3722 34.4159 56.3722 34.449Z" fill="#003E52"/>
<path d="M72.7599 36.2713C72.7933 36.3045 72.7933 36.3376 72.7933 36.3707C72.7933 36.437 72.7599 36.4701 72.7266 36.4701C72.5263 36.6689 72.2593 36.8677 71.9255 37.0665C71.5918 37.2653 71.2246 37.3647 70.8241 37.3647H70.7908C70.3235 37.3647 69.923 37.2322 69.5558 36.9671C69.1887 36.702 68.8549 36.4039 68.5212 36.1057L65.6842 33.19L62.8472 36.1057C62.5469 36.4039 62.2131 36.702 61.846 36.9671C61.4788 37.2322 61.0449 37.3647 60.611 37.3647C60.2105 37.3647 59.8434 37.2653 59.5096 37.0665C59.1759 36.8677 58.9089 36.6689 58.6752 36.4701C58.6418 36.437 58.6418 36.4039 58.6418 36.3707C58.6418 36.3376 58.6418 36.3045 58.6752 36.2713L63.6816 31.1358L59.0424 26.3979C59.009 26.3648 59.009 26.3317 59.009 26.2985C59.009 26.2654 59.009 26.2323 59.0424 26.1991C59.276 26.0003 59.543 25.8015 59.8768 25.6028C60.2105 25.404 60.5777 25.3046 60.9782 25.3046C61.4454 25.3046 61.846 25.4371 62.2131 25.7022C62.5802 25.9672 62.914 26.2654 63.2144 26.5636L65.6842 29.0816L68.154 26.5636C68.4544 26.2654 68.8216 25.9672 69.1887 25.7022C69.5558 25.4371 69.9564 25.3046 70.4236 25.3046H70.457C70.8575 25.3046 71.2246 25.404 71.5584 25.6028C71.8922 25.8015 72.1592 26.0003 72.3594 26.1991C72.3928 26.2323 72.4262 26.2654 72.4262 26.2985C72.4262 26.3317 72.4262 26.3648 72.3928 26.3979L67.7535 31.1358L72.7599 36.2713Z" fill="#003E52"/>
<path d="M88.6137 25.3045C88.6471 25.3708 88.6471 25.4039 88.6471 25.437C88.6471 25.7352 88.5804 26.0665 88.5136 26.431C88.4135 26.8286 88.2466 27.1599 87.9462 27.425C87.6124 27.7563 87.2453 27.9551 86.778 28.0213C86.3442 28.0876 85.8769 28.1539 85.443 28.1539H82.9732V34.1839C82.9732 34.6146 82.9398 35.0785 82.8397 35.5092C82.7395 35.9399 82.5059 36.3375 82.1388 36.6688C81.805 36.967 81.4379 37.1327 81.004 37.2321C80.5701 37.3315 80.203 37.3646 79.8692 37.3646C79.8024 37.3646 79.7691 37.3646 79.7691 37.3315C79.7357 37.2984 79.7357 37.2652 79.7357 37.2321V28.1539L74.529 28.1207C74.4956 28.1207 74.4623 28.1207 74.4289 28.0876C74.3955 28.0545 74.3955 28.0213 74.3955 27.9882C74.4289 27.69 74.4956 27.3587 74.5624 26.9942C74.6625 26.6298 74.8294 26.2985 75.1298 26.0003C75.4302 25.6689 75.8307 25.4702 76.2646 25.4039C76.6985 25.3376 77.1657 25.2714 77.5996 25.2714H88.5136C88.5136 25.2714 88.5804 25.2714 88.6137 25.3045Z" fill="#003E52"/>
<path d="M104.167 36.205C104.2 36.2381 104.2 36.2713 104.2 36.3044C104.2 36.3707 104.167 36.4038 104.134 36.4038C103.933 36.6026 103.633 36.8014 103.333 37.0002C102.999 37.199 102.632 37.2984 102.231 37.2984H102.198C101.731 37.2984 101.33 37.1658 100.963 36.9008C100.596 36.6357 100.262 36.3707 99.9282 36.0393L96.6907 32.7261H93.9872V34.1508C93.9872 34.5815 93.9539 35.0454 93.8537 35.4761C93.7536 35.9068 93.52 36.3044 93.1528 36.6357C92.8191 36.9339 92.4519 37.0996 92.0181 37.199C91.5842 37.2984 91.217 37.3315 90.8833 37.3315C90.8499 37.3315 90.8165 37.3315 90.7831 37.2984C90.7498 37.2652 90.7498 37.2321 90.7498 37.199V25.9671C90.7498 25.7683 90.8165 25.6027 90.95 25.4702C91.0835 25.3376 91.2504 25.2714 91.4507 25.2714H100.462C100.963 25.2714 101.464 25.3708 101.897 25.5696C102.365 25.7683 102.765 26.0334 103.099 26.3647C103.433 26.696 103.7 27.0936 103.9 27.5575C104.1 28.0213 104.2 28.4852 104.2 28.9822C104.2 29.4792 104.1 29.943 103.933 30.3737C103.766 30.8044 103.499 31.202 103.199 31.5334C102.899 31.8647 102.532 32.1297 102.098 32.3285C101.664 32.5273 101.23 32.6598 100.729 32.693L104.167 36.205ZM100.863 29.6448C101.03 29.4792 101.13 29.2472 101.13 29.0153C101.13 28.7834 101.03 28.5515 100.863 28.3858C100.696 28.187 100.462 28.1207 100.229 28.1207H94.0206V29.9099L100.229 29.943C100.462 29.9099 100.696 29.8105 100.863 29.6448Z" fill="#003E52"/>
<path d="M120.187 34.449C120.221 34.449 120.221 34.5153 120.221 34.5484C120.221 34.8466 120.154 35.1779 120.087 35.5755C119.987 35.9731 119.82 36.3044 119.52 36.6026C119.186 36.9339 118.819 37.1327 118.352 37.199C117.918 37.2652 117.451 37.3315 117.017 37.3315H113.913C112.845 37.3315 111.977 37.2652 111.243 37.0996C110.508 36.967 109.908 36.702 109.407 36.4038C108.606 35.8737 107.972 35.1448 107.538 34.2502C107.104 33.3556 106.87 32.3617 106.87 31.2352C106.87 30.1749 107.104 29.2141 107.538 28.3195C107.972 27.425 108.606 26.7292 109.407 26.1991H109.44C109.941 25.8677 110.575 25.6358 111.276 25.5033C111.977 25.3708 112.878 25.2714 113.946 25.2714H120.087C120.121 25.2714 120.154 25.2714 120.187 25.3045C120.221 25.3376 120.221 25.3708 120.221 25.4039C120.221 25.7021 120.154 26.0334 120.087 26.3979C119.987 26.7623 119.82 27.0936 119.52 27.3918C119.186 27.7231 118.819 27.9219 118.352 27.9882C117.918 28.0545 117.451 28.1207 117.017 28.1207H114.18C112.678 28.1207 111.643 28.3527 111.076 28.8165C110.742 29.0816 110.508 29.446 110.341 29.8767H118.886C118.953 29.8767 118.986 29.8767 118.986 29.9099C119.019 29.943 119.019 29.9761 119.019 30.0093C119.019 30.2743 118.953 30.6056 118.886 31.0032C118.786 31.3677 118.619 31.699 118.318 31.9972C118.018 32.3285 117.617 32.5273 117.184 32.5936C116.75 32.6598 116.316 32.693 115.915 32.693H110.308C110.508 33.2894 110.842 33.6869 111.41 33.952C111.977 34.2502 112.878 34.3827 114.146 34.3827H120.054C120.121 34.3827 120.154 34.4159 120.187 34.449Z" fill="#003E52"/>
<path d="M139.145 25.9671C139.612 26.431 139.879 27.0274 139.913 27.69C139.913 27.7894 139.913 27.9219 139.913 28.0213C139.913 28.1207 139.913 28.2533 139.913 28.4189V37.1658C139.913 37.199 139.913 37.2321 139.879 37.2652C139.879 37.2984 139.846 37.2984 139.779 37.2984C139.445 37.2984 139.078 37.2321 138.644 37.1658C138.21 37.0664 137.843 36.9008 137.51 36.6026C137.142 36.2713 136.909 35.9068 136.809 35.443C136.709 35.0122 136.675 34.5484 136.675 34.1177V29.1147L131.702 35.4761C131.669 35.5092 131.602 35.5423 131.569 35.5423C131.502 35.5423 131.469 35.5092 131.469 35.4761L126.462 29.1147V34.1508C126.462 34.5815 126.429 35.0454 126.329 35.4761C126.228 35.9068 125.995 36.3044 125.628 36.6357C125.294 36.9339 124.927 37.0996 124.493 37.199C124.059 37.2984 123.692 37.3315 123.358 37.3315C123.325 37.3315 123.291 37.3315 123.258 37.2984C123.225 37.2652 123.225 37.2321 123.225 37.199V28.4521C123.225 28.3195 123.225 28.187 123.225 28.0545C123.225 27.9551 123.258 27.8225 123.258 27.7231C123.291 27.0274 123.558 26.4641 124.026 26.0003C124.493 25.5364 125.094 25.2714 125.795 25.2714C126.195 25.2714 126.596 25.3708 126.963 25.5364C127.33 25.7021 127.63 25.9671 127.864 26.2985L131.602 31.0695L135.34 26.2985H135.374C135.607 25.9671 135.908 25.7352 136.275 25.5364C136.608 25.3708 137.009 25.2714 137.409 25.2714C138.044 25.2714 138.644 25.5033 139.145 25.9671Z" fill="#003E52"/>
<path d="M155.967 34.449C156 34.449 156 34.5153 156 34.5484C156 34.8466 155.933 35.1779 155.867 35.5755C155.767 35.9731 155.6 36.3044 155.299 36.6026C154.965 36.9339 154.598 37.1327 154.131 37.199C153.697 37.2652 153.23 37.3315 152.796 37.3315H149.692C148.624 37.3315 147.756 37.2652 147.022 37.0996C146.288 36.967 145.687 36.702 145.186 36.4038C144.385 35.8737 143.751 35.1448 143.317 34.2502C142.883 33.3556 142.65 32.3617 142.65 31.2352C142.65 30.1749 142.883 29.2141 143.317 28.3195C143.751 27.425 144.385 26.7292 145.186 26.1991H145.22C145.72 25.8677 146.354 25.6358 147.055 25.5033C147.756 25.3708 148.657 25.2714 149.725 25.2714H155.867C155.9 25.2714 155.933 25.2714 155.967 25.3045C156 25.3376 156 25.3708 156 25.4039C156 25.7021 155.933 26.0334 155.867 26.3979C155.767 26.7623 155.6 27.0936 155.299 27.3918C154.965 27.7231 154.598 27.9219 154.131 27.9882C153.697 28.0545 153.23 28.1207 152.796 28.1207H149.959C148.457 28.1207 147.422 28.3527 146.855 28.8165C146.521 29.0816 146.288 29.446 146.121 29.8767H154.665C154.732 29.8767 154.765 29.8767 154.765 29.9099C154.799 29.943 154.799 29.9761 154.799 30.0093C154.799 30.2743 154.732 30.6056 154.665 31.0032C154.565 31.3677 154.398 31.699 154.098 31.9972C153.797 32.3285 153.397 32.5273 152.963 32.5936C152.529 32.6598 152.095 32.693 151.695 32.693H146.087C146.288 33.2894 146.621 33.6869 147.189 33.952C147.756 34.2502 148.657 34.3827 149.926 34.3827H155.867C155.9 34.3827 155.933 34.4159 155.967 34.449Z" fill="#003E52"/>
<path d="M61.7792 45.0845C61.7458 45.0182 61.6791 44.9851 61.6457 44.9851C61.6123 44.9851 61.5789 44.9851 61.5456 45.0182C61.4454 45.0845 61.3453 45.1176 61.2786 45.1507C61.2118 45.1839 61.1117 45.1839 60.9782 45.1839C60.7779 45.1839 60.6444 45.1507 60.5777 45.0513C60.5109 44.9519 60.4442 44.7863 60.4442 44.5544V42.7321H61.3453C61.4788 42.7321 61.5456 42.699 61.5789 42.6658C61.6123 42.6327 61.6457 42.5333 61.6457 42.4339V42.2351C61.6457 42.1357 61.6123 42.0363 61.5789 42.0032C61.5456 41.9369 61.4454 41.9369 61.3453 41.9369H60.4442V41.1086C60.4442 41.0092 60.4108 40.943 60.3774 40.8767C60.344 40.8104 60.2439 40.8104 60.1438 40.8104H59.8768C59.7766 40.8104 59.7433 40.8104 59.7099 40.8436C59.6765 40.8767 59.6431 40.9098 59.6098 40.9761C59.5096 41.1086 59.4762 41.2411 59.4095 41.3405C59.3761 41.4399 59.3427 41.5393 59.3427 41.6719V41.9369H58.9422C58.8087 41.9369 58.742 41.9701 58.7086 42.0032C58.6752 42.0363 58.6418 42.1357 58.6418 42.2351V42.4339C58.6418 42.5333 58.6752 42.6327 58.7086 42.6658C58.742 42.699 58.8421 42.7321 58.9422 42.7321H59.3427V44.5875C59.3427 45.0513 59.4762 45.3827 59.7099 45.6477C59.9435 45.9128 60.3106 46.0453 60.7779 46.0453C61.2452 46.0453 61.6457 45.9459 61.9794 45.714C62.0462 45.6809 62.0796 45.6146 62.0796 45.5815C62.0796 45.5483 62.0796 45.5152 62.0462 45.4821L61.7792 45.0845Z" fill="#00ADBB"/>
<path d="M67.4531 41.9369C66.7522 41.9369 66.2182 42.1357 65.8511 42.467C65.4839 42.8315 65.2837 43.3616 65.2837 44.0573C65.2837 44.4881 65.3838 44.8857 65.5841 45.1838C65.7843 45.482 66.0513 45.714 66.4185 45.8465C66.7522 45.979 67.1528 46.0453 67.5533 46.0453C67.887 46.0453 68.1874 46.0121 68.421 45.9459C68.6881 45.8796 68.9217 45.7802 69.1553 45.6477C69.2221 45.6146 69.2555 45.5483 69.2555 45.5152C69.2555 45.482 69.2554 45.4489 69.2221 45.4158L69.0218 45.0844C68.9884 45.0182 68.9217 44.985 68.8883 44.985C68.8549 44.985 68.8216 44.985 68.7882 45.0182C68.4544 45.217 68.0873 45.2832 67.6868 45.2832C67.2529 45.2832 66.9191 45.1838 66.6855 45.0182C66.4519 44.8525 66.3517 44.6206 66.3517 44.2893H69.2221C69.3556 44.2893 69.5225 44.223 69.5225 43.958C69.5225 43.2953 69.3556 42.7983 68.9884 42.4339C68.6547 42.1026 68.1207 41.9369 67.4531 41.9369ZM68.5212 43.6266H66.3517C66.3517 43.3284 66.4519 43.1296 66.6521 42.9309C66.8524 42.7652 67.1194 42.6658 67.4865 42.6658C67.8537 42.6658 68.1207 42.7652 68.2875 42.9309C68.421 43.0965 68.5212 43.3284 68.5212 43.6266Z" fill="#00ADBB"/>
<path d="M76.6314 45.0183C76.5647 44.8857 76.4979 44.8857 76.3644 44.952C76.1976 45.0514 76.064 45.1177 75.8972 45.1839C75.7303 45.2502 75.53 45.2502 75.3298 45.2502C74.8959 45.2502 74.5621 45.1508 74.3619 44.952C74.1282 44.7532 74.0281 44.4219 74.0281 44.0243C74.0281 43.6267 74.1282 43.3285 74.3619 43.0966C74.5955 42.8647 74.8959 42.7653 75.263 42.7653C75.4967 42.7653 75.6635 42.7984 75.8304 42.8315C75.9973 42.8647 76.1642 42.9641 76.2977 43.0635C76.4312 43.1297 76.4979 43.1297 76.5647 43.0303L76.765 42.6659C76.7983 42.6327 76.7983 42.5665 76.7983 42.5333C76.7983 42.4671 76.765 42.4339 76.6982 42.4008C76.4979 42.2683 76.2643 42.1358 76.0307 42.0695C75.797 42.0032 75.4967 41.9701 75.1629 41.9701C74.6956 41.9701 74.2951 42.0695 73.9614 42.2351C73.6276 42.4008 73.3606 42.6659 73.1603 42.9641C72.9601 43.2623 72.8933 43.6267 72.8933 44.0574C72.8933 44.7201 73.0936 45.2171 73.4941 45.5815C73.8946 45.946 74.462 46.1116 75.1629 46.1116C75.4967 46.1116 75.797 46.0785 76.0307 46.0122C76.2643 45.946 76.4979 45.8466 76.7316 45.714C76.7983 45.6809 76.8317 45.6146 76.8317 45.5815C76.8317 45.5484 76.8317 45.5152 76.7983 45.4821L76.6314 45.0183Z" fill="#00ADBB"/>
<path d="M82.9396 41.9369C82.6059 41.9369 82.3389 41.9701 82.1052 42.0695C81.905 42.1357 81.7047 42.2683 81.5378 42.4008V40.7442C81.5378 40.6448 81.5045 40.5785 81.4711 40.5454C81.4377 40.5123 81.371 40.4791 81.2708 40.4791H80.7368C80.6367 40.4791 80.5699 40.5123 80.5366 40.5454C80.5032 40.5785 80.5032 40.6448 80.5032 40.7442V45.6146C80.5032 45.714 80.5366 45.8134 80.6033 45.8465C80.6701 45.9128 80.7368 45.9459 80.8703 45.9459H81.2708C81.4043 45.9459 81.4711 45.9128 81.5378 45.8465C81.6046 45.7803 81.6046 45.714 81.6046 45.6146V43.5273C81.6046 43.3948 81.638 43.2622 81.7381 43.1297C81.8382 43.0303 81.9717 42.9309 82.1052 42.8646C82.2721 42.7984 82.439 42.7652 82.6059 42.7652C82.8395 42.7652 83.0398 42.8315 83.1399 42.9309C83.24 43.0303 83.3068 43.196 83.3068 43.461V45.6478C83.3068 45.7471 83.3401 45.8465 83.4069 45.8797C83.4736 45.9459 83.5404 45.9791 83.6739 45.9791H84.1078C84.2413 45.9791 84.308 45.9459 84.3748 45.8797C84.4415 45.8134 84.4415 45.7471 84.4415 45.6478V43.3948C84.4415 42.9309 84.308 42.5665 84.041 42.3345C83.7406 42.0695 83.3735 41.9369 82.9396 41.9369Z" fill="#00ADBB"/>
<path d="M90.5493 41.9369C89.9151 41.9369 89.3811 42.1026 89.0473 42.467V42.2351C89.0473 42.1025 88.9472 42.0363 88.8137 42.0363H88.3464C88.2463 42.0363 88.1795 42.0694 88.1462 42.1026C88.1128 42.1357 88.1128 42.2019 88.1128 42.3013V45.6146C88.1128 45.714 88.1462 45.8134 88.2129 45.8465C88.2797 45.9128 88.3464 45.9459 88.4799 45.9459H88.8804C89.0139 45.9459 89.0807 45.9128 89.1475 45.8465C89.2142 45.7802 89.2142 45.714 89.2142 45.6146V43.5272C89.2142 43.2953 89.3143 43.1296 89.5146 42.9971C89.7149 42.8646 89.9485 42.7652 90.2155 42.7652C90.4825 42.7652 90.6494 42.8315 90.7495 42.9309C90.8496 43.0303 90.9164 43.1959 90.9164 43.461V45.6477C90.9164 45.7471 90.9498 45.8465 91.0165 45.8796C91.0833 45.9459 91.15 45.979 91.2835 45.979H91.7174C91.8509 45.979 91.9177 45.9459 91.9844 45.8796C92.0512 45.8134 92.0512 45.7471 92.0512 45.6477V43.3947C92.0512 42.9309 91.9177 42.5664 91.6507 42.3345C91.3503 42.0694 90.9831 41.9369 90.5493 41.9369Z" fill="#00ADBB"/>
<path d="M97.6584 41.9369C96.9575 41.9369 96.4235 42.1357 96.023 42.5001C95.6558 42.8646 95.4556 43.3616 95.4556 44.0242C95.4556 44.6537 95.6558 45.1507 96.023 45.5483C96.3901 45.9128 96.9575 46.1116 97.6584 46.1116C98.3593 46.1116 98.8933 45.9128 99.2938 45.5483C99.6943 45.1838 99.8612 44.6869 99.8612 44.0242C99.8612 43.3947 99.6609 42.8977 99.2938 42.5001C98.8933 42.1357 98.3593 41.9369 97.6584 41.9369ZM98.7598 43.9911C98.7598 44.3887 98.6596 44.72 98.4594 44.9188C98.2591 45.1176 97.9921 45.217 97.625 45.217C97.2579 45.217 96.9909 45.1176 96.7906 44.9188C96.5903 44.72 96.4902 44.3887 96.4902 43.9911C96.4902 43.5935 96.5903 43.2953 96.7906 43.0965C96.9909 42.8977 97.2579 42.7983 97.625 42.7983C97.9921 42.7983 98.2591 42.8977 98.4594 43.0965C98.6596 43.2953 98.7598 43.5935 98.7598 43.9911Z" fill="#00ADBB"/>
<path d="M104.2 40.4791H103.766C103.633 40.4791 103.566 40.5123 103.499 40.5785C103.433 40.6448 103.433 40.7111 103.433 40.8436V45.6478C103.433 45.7471 103.466 45.8465 103.499 45.8797C103.566 45.9459 103.633 45.9791 103.766 45.9791H104.2C104.334 45.9791 104.401 45.9459 104.467 45.8797C104.534 45.8134 104.534 45.7471 104.534 45.6478V40.8104C104.534 40.7111 104.501 40.6117 104.434 40.5454C104.401 40.5123 104.3 40.4791 104.2 40.4791Z" fill="#00ADBB"/>
<path d="M110.308 41.9369C109.607 41.9369 109.073 42.1357 108.673 42.5001C108.305 42.8646 108.105 43.3616 108.105 44.0242C108.105 44.6537 108.305 45.1507 108.673 45.5483C109.04 45.9128 109.607 46.1116 110.308 46.1116C111.009 46.1116 111.543 45.9128 111.943 45.5483C112.344 45.1838 112.511 44.6869 112.511 44.0242C112.511 43.3947 112.311 42.8977 111.943 42.5001C111.543 42.1357 111.009 41.9369 110.308 41.9369ZM111.409 43.9911C111.409 44.3887 111.309 44.72 111.109 44.9188C110.909 45.1176 110.642 45.217 110.275 45.217C109.908 45.217 109.641 45.1176 109.44 44.9188C109.24 44.72 109.14 44.3887 109.14 43.9911C109.14 43.5935 109.24 43.2953 109.44 43.0965C109.641 42.8977 109.908 42.7983 110.275 42.7983C110.642 42.7983 110.909 42.8977 111.109 43.0965C111.309 43.2953 111.409 43.5935 111.409 43.9911Z" fill="#00ADBB"/>
<path d="M119.319 42.0694C118.986 41.97 118.652 41.9369 118.285 41.9369C117.517 41.9369 116.95 42.1357 116.549 42.467C116.149 42.8315 115.948 43.3616 115.948 44.0242C115.948 44.6206 116.115 45.0844 116.449 45.4158C116.783 45.7471 117.284 45.9128 117.884 45.9128C118.185 45.9128 118.418 45.8796 118.619 45.7802C118.785 45.714 118.952 45.6146 119.086 45.482C119.086 45.8134 118.986 46.0453 118.852 46.2109C118.685 46.3766 118.452 46.4429 118.118 46.4429C117.651 46.4429 117.284 46.3766 116.983 46.2109C116.883 46.1447 116.816 46.1778 116.75 46.2772L116.516 46.6748C116.483 46.7079 116.483 46.7411 116.483 46.8073C116.483 46.8405 116.516 46.9067 116.583 46.9067C116.75 47.0061 116.983 47.0724 117.284 47.1386C117.584 47.2049 117.884 47.238 118.185 47.238C118.852 47.238 119.386 47.0392 119.687 46.6748C120.02 46.3103 120.154 45.7802 120.154 45.1507V42.4007H120.121C119.92 42.3013 119.653 42.1688 119.319 42.0694ZM119.052 42.8977V44.2893C119.052 44.5543 118.952 44.7531 118.785 44.8857C118.619 45.0182 118.385 45.1176 118.085 45.1176C117.717 45.1176 117.45 45.0182 117.284 44.8525C117.117 44.6537 117.017 44.3887 117.017 44.0242C117.017 43.1959 117.417 42.7983 118.218 42.7983C118.385 42.7983 118.552 42.7983 118.685 42.8315C118.852 42.7983 118.952 42.8315 119.052 42.8977Z" fill="#00ADBB"/>
<path d="M124.693 42.0364H124.293C124.159 42.0364 124.092 42.0695 124.026 42.1358C123.959 42.202 123.926 42.2683 123.926 42.4008V45.6147C123.926 45.7141 123.959 45.8135 124.026 45.8466C124.092 45.9128 124.159 45.946 124.293 45.946H124.693C124.827 45.946 124.893 45.9128 124.96 45.8466C125.027 45.7803 125.027 45.7141 125.027 45.6147V42.4008C125.027 42.3014 124.994 42.202 124.927 42.1358C124.893 42.0695 124.827 42.0364 124.693 42.0364Z" fill="#00ADBB"/>
<path d="M124.66 40.4791H124.326C124.193 40.4791 124.093 40.5123 123.992 40.6117C123.926 40.6779 123.892 40.8104 123.892 40.9098V41.0755C123.892 41.208 123.926 41.3074 123.992 41.3737C124.059 41.4731 124.193 41.5062 124.326 41.5062H124.66C124.794 41.5062 124.927 41.4731 124.994 41.3737C125.061 41.3074 125.127 41.1749 125.127 41.0755V40.9098C125.127 40.7773 125.094 40.6779 124.994 40.6117C124.927 40.5123 124.794 40.4791 124.66 40.4791Z" fill="#00ADBB"/>
<path d="M130.834 41.9369C130.134 41.9369 129.6 42.1357 129.232 42.467C128.865 42.8315 128.665 43.3616 128.665 44.0573C128.665 44.4881 128.765 44.8857 128.965 45.1838C129.166 45.482 129.433 45.714 129.8 45.8465C130.134 45.979 130.534 46.0453 130.935 46.0453C131.268 46.0453 131.569 46.0121 131.802 45.9459C132.069 45.8796 132.303 45.7802 132.537 45.6477C132.603 45.6146 132.637 45.5483 132.637 45.5152C132.637 45.482 132.637 45.4489 132.603 45.4158L132.403 45.0844C132.37 45.0182 132.303 44.985 132.27 44.985C132.236 44.985 132.203 44.985 132.17 45.0182C131.836 45.217 131.469 45.2832 131.068 45.2832C130.634 45.2832 130.3 45.1838 130.067 45.0182C129.833 44.8525 129.733 44.6206 129.733 44.2893H132.603C132.737 44.2893 132.904 44.223 132.904 43.958C132.904 43.2953 132.737 42.7983 132.37 42.4339C132.036 42.1026 131.502 41.9369 130.834 41.9369ZM129.733 43.6266C129.733 43.3284 129.833 43.1296 130.033 42.9309C130.234 42.7652 130.501 42.6658 130.868 42.6658C131.235 42.6658 131.502 42.7652 131.669 42.9309C131.836 43.0965 131.936 43.3284 131.936 43.6266H129.733Z" fill="#00ADBB"/>
<path d="M139.679 44.19C139.512 43.9912 139.212 43.8586 138.778 43.7261L138.511 43.6598C138.144 43.5604 137.91 43.461 137.743 43.3948C137.61 43.3285 137.543 43.2291 137.543 43.0966C137.543 42.9641 137.61 42.8647 137.71 42.8315C137.843 42.7653 138.01 42.7653 138.277 42.7653C138.478 42.7653 138.678 42.7984 138.845 42.8315C139.045 42.8647 139.212 42.9309 139.345 43.0303C139.445 43.0966 139.512 43.0966 139.579 42.9972L139.779 42.6659C139.813 42.5996 139.813 42.5665 139.813 42.5333C139.813 42.4671 139.779 42.4339 139.679 42.3677C139.245 42.1026 138.711 41.9701 138.11 41.9701C137.61 41.9701 137.209 42.0695 136.909 42.2683C136.575 42.4671 136.442 42.7653 136.442 43.1297C136.442 43.3616 136.508 43.5604 136.608 43.693C136.709 43.8586 136.842 43.958 137.042 44.0574C137.209 44.1568 137.476 44.2562 137.777 44.3556L138.044 44.455C138.277 44.5213 138.444 44.5875 138.544 44.6207C138.644 44.6538 138.711 44.7201 138.745 44.7532C138.778 44.7863 138.811 44.8526 138.811 44.952C138.811 45.0845 138.745 45.1839 138.644 45.2502C138.511 45.3165 138.311 45.3496 138.01 45.3496C137.81 45.3496 137.61 45.3165 137.376 45.2502C137.143 45.1839 136.942 45.1177 136.809 45.0183C136.709 44.952 136.642 44.952 136.575 45.0514L136.341 45.449C136.308 45.4821 136.308 45.5152 136.308 45.5484C136.308 45.6146 136.341 45.6478 136.442 45.714C136.675 45.8466 136.942 45.946 137.243 46.0122L137.71 46.1116H138.211C138.778 46.1116 139.212 46.0122 139.512 45.7803C139.813 45.5815 139.979 45.2833 139.979 44.952C139.946 44.6207 139.846 44.3887 139.679 44.19Z" fill="#00ADBB"/>
<path d="M147.756 44.6206C147.656 44.4881 147.589 44.3556 147.589 44.223V43.9911C147.589 43.8254 147.656 43.6929 147.756 43.5935C147.856 43.4941 147.99 43.4279 148.157 43.4279H148.39C148.557 43.4279 148.691 43.4941 148.791 43.5935C148.891 43.6929 148.958 43.8586 148.958 43.9911V44.223C148.958 44.3887 148.891 44.5212 148.791 44.6206C148.691 44.7531 148.557 44.7863 148.39 44.7863H148.157C147.99 44.8194 147.856 44.7531 147.756 44.6206Z" fill="#00ADBB"/>
<path d="M50.3312 44.6206C50.2311 44.4881 50.1643 44.3556 50.1643 44.223V43.9911C50.1643 43.8254 50.2311 43.6929 50.3312 43.5935C50.4313 43.4941 50.5648 43.4279 50.7317 43.4279H50.9653C51.1322 43.4279 51.2657 43.4941 51.3658 43.5935C51.466 43.6929 51.5327 43.8586 51.5327 43.9911V44.223C51.5327 44.3887 51.466 44.5212 51.3658 44.6206C51.2657 44.7531 51.1322 44.7863 50.9653 44.7863H50.7317C50.5648 44.8194 50.4313 44.7531 50.3312 44.6206Z" fill="#00ADBB"/>
<path d="M25.4327 19.6057C25.1657 19.3407 24.6984 19.5063 24.3647 19.9702L18.9577 27.8888L17.3891 20.0033C17.3891 19.9702 17.3557 19.9039 17.3557 19.8708C17.1888 19.4401 16.7549 19.3407 16.3544 19.7051C15.9539 20.0696 15.787 20.6991 15.9539 21.1298L18.7241 28.3527V28.3858C18.7575 28.4521 18.8576 28.4189 18.9244 28.3527L25.1991 21.0636C25.2325 21.0304 25.2658 20.9973 25.2992 20.931C25.633 20.4672 25.6997 19.8708 25.4327 19.6057Z" fill="#00424B"/>
<path d="M15.2863 31.7653L14.1849 32.196L12.1489 32.9912L8.2439 34.5152C7.4095 34.8466 6.77535 35.708 6.67522 36.6026L6.04108 42.8977L1.23492 41.6718C0.500642 41.473 0 40.8435 0 40.0483V26.696C0 24.7412 1.63543 23.2834 3.17073 23.9461L15.8203 29.3798C16.1207 29.4792 16.2875 29.7773 16.3209 30.1749C16.3209 30.8376 15.887 31.5333 15.2863 31.7653Z" fill="#CDDE00"/>
<path d="M12.8832 45.5482C12.7497 45.8133 12.5161 46.0121 12.2491 46.1115L7.60978 47.8343C6.57512 48.2319 5.60721 47.6687 5.70734 46.6747L6.07448 42.8645L10.2465 43.991L11.8152 44.3886L12.5161 44.5874C12.95 44.6868 13.1168 45.1175 12.8832 45.5482Z" fill="#00ADBB"/>
<path d="M16.7547 31.5664L13.7175 44.5542C13.5506 45.2169 12.9832 45.8133 12.3157 46.0783L12.2156 46.1115C12.4826 46.0121 12.7162 45.8133 12.8497 45.5482C13.0834 45.1175 12.9499 44.6868 12.516 44.5874L11.8151 44.3886L10.2464 43.991L6.04102 42.8976L6.67516 36.6025C6.77529 35.7079 7.40944 34.8465 8.24384 34.5152L12.1488 32.9911L14.1848 32.1959L15.2862 31.7652C15.887 31.5333 16.3542 30.8044 16.3209 30.1417C16.2875 29.7441 16.1206 29.446 15.8202 29.3466L15.9871 29.4128C16.688 29.711 16.9884 30.6056 16.7547 31.5664Z" fill="#003E52"/>
<path d="M20.6599 31.5334L21.5277 31.8647L23.0964 32.4611L25.9667 33.5544C26.5675 33.7863 26.7344 34.5153 26.4006 35.3767L24.0643 41.3736L28.8371 39.4851C29.538 39.22 30.2389 38.5243 30.5726 37.7953L36.1798 25.8015C36.9808 24.0786 36.3467 22.8527 34.8781 23.4822L21.3274 29.1478C20.9937 29.2804 20.6599 29.5786 20.4597 29.9761C20.0925 30.6719 20.1926 31.3346 20.6599 31.5334Z" fill="#CDDE00"/>
<path d="M16.1875 45.2169C16.1875 45.4489 16.3544 45.6145 16.5546 45.6808L20.2928 46.5091C21.0938 46.6747 22.262 45.9458 22.6291 44.985L24.0643 41.3405L19.5919 43.1296L17.8229 43.8254L17.0219 44.1567C16.5546 44.3224 16.1875 44.8193 16.1875 45.2169Z" fill="#00ADBB"/>
<path d="M19.2915 31.4339L15.8204 44.3555C15.6535 45.0182 15.9205 45.5151 16.4879 45.6477L16.5546 45.6808C16.3544 45.6145 16.1875 45.482 16.1875 45.217C16.1541 44.8194 16.5546 44.3224 17.0219 44.1567L17.8229 43.8254L19.5919 43.1296L24.0977 41.3405L26.434 35.3436C26.7677 34.4821 26.6009 33.7532 26.0001 33.5213L23.1297 32.4279L21.5611 31.8315L20.6933 31.5002C20.226 31.3346 20.1259 30.6388 20.4597 29.9761C20.6599 29.5785 20.9937 29.2804 21.3274 29.1478L21.1606 29.2141C20.2928 29.5785 19.5585 30.4731 19.2915 31.4339Z" fill="#003E52"/>
</g>
<path d="M1.64872 11.5646C1.37492 11.5646 1.17528 11.5079 1.04979 11.3945C0.935703 11.2698 0.878662 11.0827 0.878662 10.8333V0.748296C0.878662 0.498864 0.935703 0.31179 1.04979 0.187074C1.17528 0.0623579 1.37492 0 1.64872 0H5.92681C8.85873 0 10.3247 1.30385 10.3247 3.91155C10.3247 6.50791 8.85873 7.8061 5.92681 7.8061H3.7022V10.8333C3.7022 11.0827 3.64516 11.2698 3.53108 11.3945C3.417 11.5079 3.21735 11.5646 2.93215 11.5646H1.64872ZM5.73857 5.74828C6.92503 5.74828 7.51826 5.13604 7.51826 3.91155C7.51826 2.68707 6.92503 2.07482 5.73857 2.07482H3.71931V5.74828H5.73857Z" fill="#003E52"/>
<path d="M15.0706 11.8197C13.5533 11.8197 12.3725 11.4342 11.5283 10.6632C10.6955 9.88092 10.2791 8.82083 10.2791 7.48297C10.2791 6.1451 10.6955 5.09069 11.5283 4.31971C12.3725 3.5374 13.5533 3.14625 15.0706 3.14625C16.5993 3.14625 17.78 3.5374 18.6128 4.31971C19.457 5.09069 19.8791 6.1451 19.8791 7.48297C19.8791 8.82083 19.457 9.88092 18.6128 10.6632C17.78 11.4342 16.5993 11.8197 15.0706 11.8197ZM15.0706 9.79589C15.7208 9.79589 16.2171 9.60314 16.5593 9.21766C16.9016 8.83217 17.0727 8.25394 17.0727 7.48297C17.0727 6.72333 16.9016 6.15077 16.5593 5.76529C16.2171 5.3798 15.7208 5.18706 15.0706 5.18706C14.4317 5.18706 13.9411 5.3798 13.5989 5.76529C13.2566 6.15077 13.0855 6.72333 13.0855 7.48297C13.0855 8.2426 13.2566 8.82083 13.5989 9.21766C13.9411 9.60314 14.4317 9.79589 15.0706 9.79589Z" fill="#003E52"/>
<path d="M22.6619 11.5646C22.5022 11.5646 22.3824 11.5362 22.3025 11.4796C22.2341 11.4229 22.177 11.3208 22.1314 11.1734L19.8555 3.7755C19.8441 3.74148 19.8384 3.69613 19.8384 3.63944C19.8384 3.48071 19.941 3.40135 20.1464 3.40135H21.9261C22.0744 3.40135 22.177 3.42402 22.2341 3.46938C22.3025 3.51473 22.3482 3.59409 22.371 3.70747L23.5688 8.24827L25.0063 4.45577C25.0519 4.33105 25.1033 4.24602 25.1603 4.20067C25.2288 4.14398 25.3314 4.11563 25.4683 4.11563H26.3753C26.5122 4.11563 26.6091 4.14398 26.6662 4.20067C26.7346 4.24602 26.7917 4.33105 26.8373 4.45577L28.2576 8.24827L29.4726 3.70747C29.4954 3.59409 29.5354 3.51473 29.5924 3.46938C29.6494 3.42402 29.7521 3.40135 29.9004 3.40135H31.6972C31.9596 3.40135 32.0566 3.52607 31.9881 3.7755L29.6951 11.1734C29.6494 11.3208 29.5867 11.4229 29.5068 11.4796C29.4384 11.5362 29.33 11.5646 29.1817 11.5646H27.8469C27.6986 11.5646 27.5903 11.5362 27.5218 11.4796C27.4534 11.4229 27.3906 11.3208 27.3336 11.1734L25.9132 7.34691L24.4929 11.1734C24.4359 11.3208 24.3731 11.4229 24.3047 11.4796C24.2362 11.5362 24.1279 11.5646 23.9795 11.5646H22.6619Z" fill="#003E52"/>
<path d="M36.8474 11.8197C35.9233 11.8197 35.0905 11.6666 34.349 11.3605C33.6188 11.043 33.037 10.5725 32.6035 9.94895C32.1814 9.31403 31.9704 8.53172 31.9704 7.60202C31.9704 6.15077 32.3696 5.04533 33.1682 4.2857C33.9782 3.52606 35.1304 3.14625 36.6249 3.14625C38.0966 3.14625 39.2089 3.51473 39.9618 4.25169C40.7262 4.98865 41.1084 6.0374 41.1084 7.39793C41.1084 7.87412 40.8916 8.11222 40.4581 8.11222H34.6399C34.6399 8.72446 34.868 9.20065 35.3244 9.54078C35.7921 9.86958 36.431 10.034 37.241 10.034C37.7201 10.034 38.1365 9.98863 38.4902 9.89793C38.8438 9.79589 39.1861 9.65416 39.5169 9.47276C39.631 9.41607 39.7108 9.38772 39.7565 9.38772C39.8363 9.38772 39.9105 9.45008 39.9789 9.5748L40.4752 10.4932C40.5208 10.5725 40.5436 10.6406 40.5436 10.6972C40.5436 10.7879 40.4809 10.8786 40.3554 10.9694C39.8991 11.2641 39.3857 11.4796 38.8153 11.6156C38.2449 11.7517 37.5889 11.8197 36.8474 11.8197ZM38.5757 6.64964C38.5757 6.08275 38.416 5.64057 38.0966 5.32311C37.7771 5.00565 37.2923 4.84692 36.642 4.84692C35.9918 4.84692 35.4955 5.01132 35.1533 5.34012C34.811 5.65758 34.6399 6.09408 34.6399 6.64964H38.5757Z" fill="#003E52"/>
<path d="M43.2937 11.5646C43.0084 11.5646 42.8031 11.5079 42.6776 11.3945C42.5635 11.2698 42.5065 11.0827 42.5065 10.8333V3.89454C42.5065 3.7018 42.5407 3.57142 42.6092 3.50339C42.6776 3.43536 42.8145 3.40135 43.0199 3.40135H44.3888C44.5257 3.40135 44.6227 3.42402 44.6798 3.46938C44.7482 3.51473 44.7881 3.59409 44.7995 3.70747L44.868 4.25169C45.5525 3.51473 46.4081 3.14625 47.4348 3.14625C47.7657 3.14625 48.0338 3.17459 48.2391 3.23128C48.4559 3.27663 48.6441 3.356 48.8038 3.46938C48.9065 3.54874 48.9578 3.62811 48.9578 3.70747C48.9578 3.74148 48.9464 3.7925 48.9236 3.86053L48.4958 5.13604C48.4502 5.27209 48.376 5.34012 48.2733 5.34012C48.2277 5.34012 48.1707 5.32311 48.1022 5.2891C47.8056 5.14171 47.4634 5.06801 47.0755 5.06801C46.5735 5.06801 46.1571 5.20973 45.8263 5.49318C45.4954 5.77662 45.33 6.15644 45.33 6.63263V10.8333C45.33 11.0827 45.273 11.2698 45.1589 11.3945C45.0448 11.5079 44.8452 11.5646 44.56 11.5646H43.2937Z" fill="#003E52"/>
<path d="M54.5613 11.8197C53.6373 11.8197 52.8045 11.6666 52.0629 11.3605C51.3328 11.043 50.751 10.5725 50.3175 9.94895C49.8954 9.31403 49.6843 8.53172 49.6843 7.60202C49.6843 6.15077 50.0836 5.04533 50.8822 4.2857C51.6922 3.52606 52.8444 3.14625 54.3389 3.14625C55.8105 3.14625 56.9228 3.51473 57.6758 4.25169C58.4401 4.98865 58.8223 6.0374 58.8223 7.39793C58.8223 7.87412 58.6056 8.11222 58.1721 8.11222H52.3538C52.3538 8.72446 52.582 9.20065 53.0383 9.54078C53.5061 9.86958 54.1449 10.034 54.9549 10.034C55.4341 10.034 55.8505 9.98863 56.2041 9.89793C56.5578 9.79589 56.9 9.65416 57.2309 9.47276C57.345 9.41607 57.4248 9.38772 57.4704 9.38772C57.5503 9.38772 57.6245 9.45008 57.6929 9.5748L58.1892 10.4932C58.2348 10.5725 58.2576 10.6406 58.2576 10.6972C58.2576 10.7879 58.1949 10.8786 58.0694 10.9694C57.613 11.2641 57.0997 11.4796 56.5293 11.6156C55.9589 11.7517 55.3029 11.8197 54.5613 11.8197ZM56.2897 6.64964C56.2897 6.08275 56.13 5.64057 55.8105 5.32311C55.4911 5.00565 55.0063 4.84692 54.356 4.84692C53.7057 4.84692 53.2095 5.01132 52.8672 5.34012C52.525 5.65758 52.3538 6.09408 52.3538 6.64964H56.2897Z" fill="#003E52"/>
<path d="M64.875 11.8197C61.5438 11.8197 59.8782 10.3628 59.8782 7.44895C59.8782 6.59862 60.0379 5.85032 60.3573 5.20406C60.6882 4.54647 61.1673 4.04194 61.7948 3.69046C62.4222 3.32765 63.1695 3.14625 64.0365 3.14625C64.5271 3.14625 64.9663 3.20294 65.3542 3.31632C65.7534 3.41836 66.0729 3.57142 66.3125 3.7755V0.748296C66.3125 0.487526 66.3695 0.300452 66.4836 0.187074C66.5977 0.0623579 66.7973 0 67.0825 0H68.3146C68.5884 0 68.7823 0.0623579 68.8964 0.187074C69.0219 0.31179 69.0847 0.498864 69.0847 0.748296V10.6632C68.6169 11.0034 68.0066 11.2811 67.2536 11.4966C66.5007 11.712 65.7078 11.8197 64.875 11.8197ZM64.9435 9.88092C65.5025 9.88092 65.9588 9.78455 66.3125 9.5918V6.47957C66.3125 6.01472 66.1641 5.66892 65.8675 5.44216C65.5709 5.20406 65.1716 5.08502 64.6697 5.08502C63.9966 5.08502 63.4946 5.30044 63.1638 5.73127C62.8443 6.15077 62.6846 6.73467 62.6846 7.48297C62.6846 8.34464 62.8729 8.96255 63.2493 9.3367C63.6258 9.69951 64.1905 9.88092 64.9435 9.88092Z" fill="#003E52"/>
<path d="M81.2425 11.8197C80.4211 11.8197 79.6225 11.712 78.8467 11.4966C78.0824 11.2811 77.4663 11.0034 76.9986 10.6632V0.748296C76.9986 0.498864 77.0556 0.31179 77.1697 0.187074C77.2952 0.0623579 77.4949 0 77.7686 0H79.0007C79.2859 0 79.4856 0.0623579 79.5997 0.187074C79.7137 0.300452 79.7708 0.487526 79.7708 0.748296V3.7755C80.0332 3.57142 80.3754 3.41836 80.7975 3.31632C81.2196 3.20294 81.6589 3.14625 82.1152 3.14625C83.4385 3.14625 84.4482 3.49772 85.1441 4.20067C85.8514 4.89227 86.205 5.87866 86.205 7.15984C86.205 8.63376 85.7829 9.77888 84.9387 10.5952C84.1059 11.4115 82.8738 11.8197 81.2425 11.8197ZM81.1056 9.88092C81.8813 9.88092 82.4574 9.65983 82.8339 9.21766C83.2104 8.76414 83.3986 8.08954 83.3986 7.19385C83.3986 6.46823 83.2503 5.93535 82.9537 5.59522C82.6685 5.25508 82.195 5.08502 81.5334 5.08502C81.0542 5.08502 80.6378 5.20973 80.2842 5.45916C79.9419 5.69726 79.7708 6.04873 79.7708 6.51358V9.5918C79.9305 9.68251 80.1302 9.7562 80.3697 9.81289C80.6093 9.85824 80.8546 9.88092 81.1056 9.88092Z" fill="#003E52"/>
<path d="M89.0319 14.2176C88.0964 14.2176 87.3264 13.9625 86.7217 13.4523C86.6191 13.373 86.5677 13.2879 86.5677 13.1972C86.5677 13.1405 86.5963 13.0555 86.6533 12.9421L87.2351 11.9387C87.3036 11.814 87.3834 11.7517 87.4747 11.7517C87.5546 11.7517 87.6458 11.7857 87.7485 11.8537C87.931 11.9784 88.1079 12.0691 88.279 12.1258C88.4501 12.1938 88.6497 12.2278 88.8779 12.2278C89.1745 12.2278 89.4027 12.1371 89.5624 11.9557C89.7335 11.7857 89.8932 11.5022 90.0416 11.1054L86.6533 3.96257C86.6077 3.87187 86.5849 3.78117 86.5849 3.69046C86.5849 3.49772 86.6875 3.40135 86.8929 3.40135H88.8779C89.0376 3.40135 89.1574 3.42969 89.2373 3.48638C89.3171 3.54307 89.3856 3.63944 89.4426 3.7755L91.325 8.38433L93.2073 3.7755C93.2644 3.63944 93.3328 3.54307 93.4127 3.48638C93.4925 3.42969 93.6123 3.40135 93.772 3.40135H95.7571C95.9624 3.40135 96.0651 3.49772 96.0651 3.69046C96.0651 3.78117 96.0423 3.87187 95.9967 3.96257L92.7966 10.7313C92.3745 11.6156 91.9981 12.2959 91.6672 12.7721C91.3478 13.2596 90.977 13.6224 90.5549 13.8605C90.1442 14.0986 89.6366 14.2176 89.0319 14.2176Z" fill="#003E52"/>
<defs>
<clipPath id="clip0_1786_11446">
<rect width="156" height="28.5268" fill="white" transform="translate(0 19.4731)"/>
</clipPath>
</defs>
</svg>
