<svg width="24" height="24" viewBox="0 0 24 24" fill="none" xmlns="http://www.w3.org/2000/svg">
<path d="M16.7071 3.08558C16.5427 2.90589 16.2315 3.01984 16.0146 3.3354L12.4426 8.56842L11.4149 3.34416C11.4083 3.31568 11.4017 3.285 11.3908 3.2587C11.2856 2.96505 10.992 2.91246 10.7334 3.14694C10.477 3.37923 10.3608 3.79997 10.4704 4.08704L12.2936 8.86206C12.2958 8.86864 12.3002 8.87521 12.3046 8.88178C12.3353 8.91904 12.3944 8.91027 12.4383 8.85768L16.5471 4.0476C16.5668 4.02349 16.5909 3.995 16.6107 3.96652C16.8254 3.65753 16.8692 3.26308 16.7071 3.08558Z" fill="#003E52"/>
<path d="M10.0299 11.1367L9.31556 11.4194L7.97443 11.9453L5.41052 12.9534C4.8561 13.1703 4.43974 13.7357 4.38057 14.3318L3.9664 18.502L0.815194 17.6846C0.330898 17.5575 0 17.1258 0 16.602V7.77515C0 6.48005 1.07159 5.51584 2.07305 5.94535L10.3871 9.53702C10.5734 9.61372 10.6961 9.80656 10.7093 10.0695C10.7224 10.5078 10.4222 10.9811 10.0299 11.1367Z" fill="#CDDE00"/>
<path d="M8.45217 20.2507C8.36013 20.4216 8.20235 20.5553 8.02923 20.6232L4.97445 21.7759C4.28635 22.0367 3.65085 21.6619 3.7144 21.0155L3.96422 18.502L6.72536 19.2185L7.76407 19.4859L8.23084 19.6086C8.51133 19.6722 8.60556 19.9614 8.45217 20.2507Z" fill="#00ADBB"/>
<path d="M11.0095 10.9988L9.01313 19.5956C8.91233 20.0295 8.5398 20.4305 8.09275 20.6014L8.0292 20.6255C8.20232 20.5554 8.35791 20.4239 8.45214 20.253C8.60554 19.9615 8.51131 19.6744 8.233 19.6109L7.76624 19.4882L6.72752 19.2208L3.96638 18.5042L4.38056 14.3341C4.43972 13.7402 4.85609 13.1748 5.4105 12.9557L7.97442 11.9476L9.31555 11.4217L10.0299 11.139C10.42 10.9834 10.7224 10.5101 10.7071 10.0718C10.6939 9.81104 10.5712 9.61601 10.3849 9.53931L10.4836 9.58094C10.9525 9.78036 11.1607 10.3567 11.0095 10.9988Z" fill="#003E52"/>
<path d="M13.5756 10.9659L14.1344 11.1828L15.1643 11.5729L17.0533 12.2917C17.45 12.4429 17.5617 12.9359 17.3448 13.4969L15.813 17.4612L18.9401 16.2033C19.4025 16.017 19.8627 15.5722 20.0862 15.0879L23.7699 7.14632C24.2958 6.01118 23.8729 5.19599 22.9153 5.6014L14.0073 9.39687C13.7882 9.48671 13.5712 9.69051 13.431 9.95567C13.2009 10.3983 13.2666 10.8476 13.5756 10.9659Z" fill="#CDDE00"/>
<path d="M10.637 20.0314C10.6457 20.1914 10.74 20.2966 10.8824 20.3316L13.3389 20.8795C13.8714 20.9978 14.6406 20.5004 14.8817 19.8758L15.8152 17.4609L12.8744 18.6443L11.7151 19.1089L11.1826 19.3236C10.8671 19.4441 10.6238 19.7619 10.637 20.0314Z" fill="#00ADBB"/>
<path d="M12.6684 10.9219L10.3893 19.4639C10.2732 19.8956 10.4551 20.2397 10.8298 20.323L10.8824 20.3339C10.7421 20.2967 10.6479 20.1915 10.6369 20.0337C10.6238 19.7642 10.867 19.4464 11.1826 19.3259L11.7151 19.1111L12.8743 18.6465L15.8152 17.4632L17.347 13.499C17.5639 12.938 17.45 12.4449 17.0555 12.2937L15.1665 11.575L14.1366 11.1849L13.5778 10.9679C13.2688 10.8474 13.2031 10.3982 13.4331 9.95553C13.5734 9.69256 13.7903 9.48877 14.0095 9.39673L13.8911 9.44713C13.3302 9.6838 12.8393 10.2842 12.6684 10.9219Z" fill="#003E52"/>
</svg>
